<svg width="500" height="500" viewBox="0 0 500 500" fill="none" xmlns="http://www.w3.org/2000/svg">
  <circle cx="250" cy="250" r="250" fill="url(#paint0_linear_1_2)"/>
  <circle cx="250" cy="130" r="20" fill="white"/>
  <circle cx="185" cy="150" r="15" fill="white"/>
  <circle cx="315" cy="150" r="15" fill="white"/>
  <circle cx="142" cy="195" r="15" fill="white"/>
  <circle cx="358" cy="195" r="15" fill="white"/>
  <circle cx="130" cy="250" r="15" fill="white"/>
  <circle cx="370" cy="250" r="15" fill="white"/>
  <circle cx="142" cy="305" r="15" fill="white"/>
  <circle cx="358" cy="305" r="15" fill="white"/>
  <circle cx="185" cy="350" r="15" fill="white"/>
  <circle cx="315" cy="350" r="15" fill="white"/>
  <circle cx="250" cy="370" r="15" fill="white"/>
  <circle cx="200" cy="195" r="20" fill="white"/>
  <circle cx="250" cy="195" r="15" fill="white"/>
  <circle cx="300" cy="195" r="20" fill="white"/>
  <circle cx="200" cy="250" r="20" fill="white"/>
  <circle cx="250" cy="250" r="20" fill="white"/>
  <circle cx="300" cy="250" r="20" fill="white"/>
  <circle cx="200" cy="305" r="20" fill="white"/>
  <circle cx="250" cy="305" r="15" fill="white"/>
  <circle cx="300" cy="305" r="20" fill="white"/>
  <defs>
    <linearGradient id="paint0_linear_1_2" x1="0" y1="0" x2="500" y2="500" gradientUnits="userSpaceOnUse">
      <stop stop-color="#1E3FE8"/>
      <stop offset="1" stop-color="#5B8BFF"/>
    </linearGradient>
  </defs>
</svg>
